# xmcd CD database file
#
# Track frame offsets:
#	150
#	17342
#	46634
#	65486
#	87700
#	109360
#	130162
#	144281
#	163303
#	178025
#	193750
#	210727
#
# Disc length: 3361 seconds
#
# Revision: 0
# Processed by: cddbd v1.5.1PL0 Copyright (c) Steve Scherf et al.
# Submitted via: CDex 1.51
#
DISCID=aa0d1f0c
DTITLE=Lyle Lovett - The Road To Ensenada
DYEAR=1996
DGENRE=Country
TTITLE0=Don't Touch My Hat
TTITLE1=Her First Mistake
TTITLE2=Fiona
TTITLE3=That's Right
TTITLE4=Who Loves You Better
TTITLE5=Private Conversation
TTITLE6=Promises
TTITLE7=It Ought To Be Easier
TTITLE8=I Can't Love You Anymore
TTITLE9=Long Tall Texan
TTITLE10=Christmas Morning
TTITLE11=The Road To Ensenada
EXTD=YEAR: 1996
EXTT0=
EXTT1=
EXTT2=
EXTT3=
EXTT4=
EXTT5=
EXTT6=
EXTT7=
EXTT8=
EXTT9=
EXTT10=
EXTT11=
PLAYORDER=
